<svg width="14" height="16" viewBox="0 0 14 16" fill="none" xmlns="http://www.w3.org/2000/svg">
<path d="M14 16H0V0H14V16Z" stroke="#E5E7EB"/>
<path d="M14 16H0V0H14V16Z" stroke="#E5E7EB"/>
<path d="M0.293701 7.29375C-0.0969238 7.68438 -0.0969238 8.31875 0.293701 8.70938L5.2937 13.7094C5.68433 14.1 6.3187 14.1 6.70933 13.7094C7.09995 13.3188 7.09995 12.6844 6.70933 12.2938L3.41245 9H13C13.5531 9 14 8.55313 14 8C14 7.44688 13.5531 7 13 7H3.41558L6.7062 3.70625C7.09683 3.31563 7.09683 2.68125 6.7062 2.29063C6.31558 1.9 5.6812 1.9 5.29058 2.29063L0.290576 7.29063L0.293701 7.29375Z" fill="#0E111C"/>
</svg>
