<svg width="60" height="60" viewBox="0 0 60 60" fill="none" xmlns="http://www.w3.org/2000/svg">
<path d="M50 0C55.5228 0 60 4.47715 60 10V50C60 55.5228 55.5228 60 50 60H10C4.47715 60 0 55.5228 0 50V10C5.15406e-07 4.47715 4.47715 0 10 0H50Z" fill="#06CCFB"/>
<path d="M50 0C55.5228 0 60 4.47715 60 10V50C60 55.5228 55.5228 60 50 60H10C4.47715 60 0 55.5228 0 50V10C5.15406e-07 4.47715 4.47715 0 10 0H50Z" stroke="#E5E7EB"/>
<path d="M45 45H15V15H45V45Z" stroke="#E5E7EB"/>
<g clip-path="url(#clip0_205_13887)">
<path d="M31.875 16.875C31.875 17.9121 32.7129 18.75 33.75 18.75H35.625C36.6621 18.75 37.5 19.5879 37.5 20.625C37.5 21.6621 36.6621 22.5 35.625 22.5H16.875C15.8379 22.5 15 23.3379 15 24.375C15 25.4121 15.8379 26.25 16.875 26.25H35.625C38.7305 26.25 41.25 23.7305 41.25 20.625C41.25 17.5195 38.7305 15 35.625 15H33.75C32.7129 15 31.875 15.8379 31.875 16.875ZM35.625 37.5C35.625 38.5371 36.4629 39.375 37.5 39.375H39.375C42.4805 39.375 45 36.8555 45 33.75C45 30.6445 42.4805 28.125 39.375 28.125H16.875C15.8379 28.125 15 28.9629 15 30C15 31.0371 15.8379 31.875 16.875 31.875H39.375C40.4121 31.875 41.25 32.7129 41.25 33.75C41.25 34.7871 40.4121 35.625 39.375 35.625H37.5C36.4629 35.625 35.625 36.4629 35.625 37.5ZM22.5 45H24.375C27.4805 45 30 42.4805 30 39.375C30 36.2695 27.4805 33.75 24.375 33.75H16.875C15.8379 33.75 15 34.5879 15 35.625C15 36.6621 15.8379 37.5 16.875 37.5H24.375C25.4121 37.5 26.25 38.3379 26.25 39.375C26.25 40.4121 25.4121 41.25 24.375 41.25H22.5C21.4629 41.25 20.625 42.0879 20.625 43.125C20.625 44.1621 21.4629 45 22.5 45Z" fill="white"/>
</g>
<defs>
<clipPath id="clip0_205_13887">
<path d="M15 15H45V45H15V15Z" fill="white"/>
</clipPath>
</defs>
</svg>
