<svg width="60" height="60" viewBox="0 0 60 60" fill="none" xmlns="http://www.w3.org/2000/svg">
<path d="M50 0C55.5228 0 60 4.47715 60 10V50C60 55.5228 55.5228 60 50 60H10C4.47715 60 0 55.5228 0 50V10C5.15406e-07 4.47715 4.47715 0 10 0H50Z" fill="#FE9D40"/>
<path d="M50 0C55.5228 0 60 4.47715 60 10V50C60 55.5228 55.5228 60 50 60H10C4.47715 60 0 55.5228 0 50V10C5.15406e-07 4.47715 4.47715 0 10 0H50Z" stroke="#E5E7EB"/>
<path d="M45 45H15V15H45V45Z" stroke="#E5E7EB"/>
<g clip-path="url(#clip0_205_13866)">
<path d="M44.2441 15.3691C44.7188 15.7207 45 16.2832 45 16.875V21.0937V36.5625C45 39.1523 42.4805 41.25 39.375 41.25C36.2695 41.25 33.75 39.1523 33.75 36.5625C33.75 33.9726 36.2695 31.875 39.375 31.875C40.0312 31.875 40.6641 31.9687 41.25 32.1445V23.6132L26.25 28.1132V40.3125C26.25 42.9023 23.7305 45 20.625 45C17.5195 45 15 42.9023 15 40.3125C15 37.7226 17.5195 35.625 20.625 35.625C21.2812 35.625 21.9141 35.7187 22.5 35.8945V26.7187V22.5C22.5 21.6738 23.0449 20.9414 23.8359 20.7011L42.5859 15.0761C43.1543 14.9062 43.7695 15.0117 44.2441 15.3691Z" fill="white"/>
</g>
<defs>
<clipPath id="clip0_205_13866">
<path d="M15 15H45V45H15V15Z" fill="white"/>
</clipPath>
</defs>
</svg>
