<svg width="20" height="16" viewBox="0 0 20 16" fill="none" xmlns="http://www.w3.org/2000/svg">
<path d="M20 16H0V0H20V16Z" stroke="#E5E7EB"/>
<g clip-path="url(#clip0_281_23264)">
<path d="M10.7495 1.5V8H12.2495V1.83438C12.9964 2.26562 13.4995 3.075 13.4995 4V8H14.9995V4C14.9995 1.79063 13.2089 0 10.9995 0H8.99952C6.79015 0 4.99952 1.79063 4.99952 4V8H6.49952V4C6.49952 3.075 7.00265 2.26562 7.74952 1.83438V8H9.24952V1.5H10.7495ZM4.49952 9C4.1214 9 3.77452 9.2125 3.60577 9.55313L3.10577 10.5531C2.94952 10.8625 2.96827 11.2312 3.14952 11.525C3.33077 11.8187 3.65265 12 3.99952 12V15C3.99952 15.5531 4.4464 16 4.99952 16C5.55265 16 5.99952 15.5531 5.99952 15V12H13.9995V15C13.9995 15.5531 14.4464 16 14.9995 16C15.5526 16 15.9995 15.5531 15.9995 15V12C16.3464 12 16.6683 11.8219 16.8495 11.525C17.0308 11.2281 17.0495 10.8625 16.8933 10.5531L16.3933 9.55313C16.2245 9.2125 15.8776 9 15.4995 9H4.49952Z" fill="#FE9D40"/>
</g>
<defs>
<clipPath id="clip0_281_23264">
<path d="M3 0H17V16H3V0Z" fill="white"/>
</clipPath>
</defs>
</svg>
