<svg width="24" height="24" viewBox="0 0 24 24" fill="none" xmlns="http://www.w3.org/2000/svg">
<path d="M12 0C18.6274 0 24 5.37258 24 12C24 18.6274 18.6274 24 12 24C5.37258 24 0 18.6274 0 12C0 5.37258 5.37258 0 12 0Z" fill="#FF511A"/>
<path d="M12 0C18.6274 0 24 5.37258 24 12C24 18.6274 18.6274 24 12 24C5.37258 24 0 18.6274 0 12C0 5.37258 5.37258 0 12 0Z" stroke="#FF511A"/>
<path d="M16.5 18H7.5V6H16.5V18Z" stroke="#FF511A"/>
<g clip-path="url(#clip0_294_26352)">
<path d="M12 6C10.7578 6 9.74999 7.00781 9.74999 8.24999V12C9.74999 13.2421 10.7578 14.25 12 14.25C13.2422 14.25 14.25 13.2421 14.25 12V8.24999C14.25 7.00781 13.2422 6 12 6ZM8.99999 11.0625C8.99999 10.7508 8.74921 10.5 8.4375 10.5C8.12578 10.5 7.875 10.7508 7.875 11.0625V12C7.875 14.0882 9.42655 15.8132 11.4375 16.0874V16.8749H10.3125C10.0008 16.8749 9.74999 17.1257 9.74999 17.4374C9.74999 17.7492 10.0008 17.9999 10.3125 17.9999H12H13.6875C13.9992 17.9999 14.25 17.7492 14.25 17.4374C14.25 17.1257 13.9992 16.8749 13.6875 16.8749H12.5625V16.0874C14.5734 15.8132 16.125 14.0882 16.125 12V11.0625C16.125 10.7508 15.8742 10.5 15.5625 10.5C15.2507 10.5 15 10.7508 15 11.0625V12C15 13.657 13.657 15 12 15C10.343 15 8.99999 13.657 8.99999 12V11.0625Z" fill="white"/>
</g>
<defs>
<clipPath id="clip0_294_26352">
<path d="M7.5 6H16.5V17.9999H7.5V6Z" fill="white"/>
</clipPath>
</defs>
</svg>
