<svg width="64" height="64" viewBox="0 0 64 64" fill="none" xmlns="http://www.w3.org/2000/svg">
<path d="M0 32C0 14.3269 14.3269 0 32 0C49.6731 0 64 14.3269 64 32C64 49.6731 49.6731 64 32 64C14.3269 64 0 49.6731 0 32Z" fill="#FF511A"/>
<g clip-path="url(#clip0_310_36144)">
<path d="M23.8379 18.9805C24.1015 18.623 24.5234 18.4062 24.9687 18.4062H39.0312C39.4765 18.4062 39.8984 18.6172 40.1621 18.9805L46.7246 27.8867C47.123 28.4258 47.082 29.1699 46.6367 29.668L33.0429 44.668C32.7793 44.9609 32.3984 45.1309 32 45.1309C31.6015 45.1309 31.2265 44.9609 30.957 44.668L17.3632 29.668C16.9121 29.1699 16.8769 28.4258 17.2754 27.8867L23.8379 18.9805ZM26.0937 21.3125C25.9004 21.459 25.8476 21.7227 25.9707 21.9277L29.3339 27.5293L20.7089 28.25C20.4687 28.2676 20.2812 28.4727 20.2812 28.7188C20.2812 28.9648 20.4687 29.1641 20.7089 29.1875L31.9589 30.125C31.9824 30.125 32.0117 30.125 32.0351 30.125L43.2851 29.1875C43.5254 29.1699 43.7129 28.9648 43.7129 28.7188C43.7129 28.4727 43.5254 28.2734 43.2851 28.25L34.666 27.5352L38.0293 21.9336C38.1523 21.7285 38.0996 21.459 37.9062 21.3184C37.7129 21.1777 37.4433 21.2012 37.2793 21.377L32 27.0898L26.7207 21.3711C26.5566 21.1953 26.2871 21.1719 26.0937 21.3125Z" fill="white"/>
</g>
<defs>
<clipPath id="clip0_310_36144">
<rect width="30" height="30" fill="white" transform="translate(17 17)"/>
</clipPath>
</defs>
</svg>
