<svg width="48" height="48" viewBox="0 0 48 48" fill="none" xmlns="http://www.w3.org/2000/svg">
<path d="M40 0C44.4183 0 48 3.58172 48 8V40C48 44.4183 44.4183 48 40 48H8C3.58172 48 0 44.4183 0 40V8C5.15405e-07 3.58172 3.58172 0 8 0H40Z" fill="white"/>
<path d="M40 0C44.4183 0 48 3.58172 48 8V40C48 44.4183 44.4183 48 40 48H8C3.58172 48 0 44.4183 0 40V8C5.15405e-07 3.58172 3.58172 0 8 0H40Z" stroke="#E5E7EB"/>
<path d="M36 36H12V12H36V36Z" stroke="#E5E7EB"/>
<path d="M36 36H12V12H36V36Z" stroke="#E5E7EB"/>
<path d="M22.7016 33.9891L14.2312 26.0813C14.0344 25.8984 13.8469 25.7016 13.6734 25.5H17.7516C18.8109 25.5 19.7672 24.8625 20.175 23.8828L20.6672 22.7016L22.9781 27.8344C23.1562 28.2328 23.5453 28.4906 23.9813 28.4953C24.4172 28.5 24.8156 28.2609 25.0125 27.8719L27 23.8922L27.0797 24.0516C27.525 24.9422 28.4344 25.5047 29.4281 25.5047H34.3266C34.1531 25.7063 33.9656 25.9031 33.7687 26.0859L25.2984 33.9891C24.9469 34.3172 24.4828 34.5 24 34.5C23.5172 34.5 23.0531 34.3172 22.7016 33.9891ZM35.6109 23.25H29.4234C29.2828 23.25 29.1516 23.1703 29.0859 23.0438L27.9984 20.8734C27.8062 20.4938 27.4172 20.25 26.9906 20.25C26.5641 20.25 26.175 20.4891 25.9828 20.8734L24.0422 24.7547L21.6516 19.4156C21.4688 19.0078 21.0562 18.7453 20.6109 18.7547C20.1656 18.7641 19.7625 19.0313 19.5891 19.4484L18.0984 23.025C18.0422 23.1656 17.9016 23.2547 17.7516 23.2547H12.75C12.6281 23.2547 12.5156 23.2734 12.4078 23.3063C12.1406 22.5563 12 21.7594 12 20.9484V20.6766C12 17.4 14.3672 14.6063 17.5969 14.0672C19.7344 13.7109 21.9094 14.4094 23.4375 15.9375L24 16.5L24.5625 15.9375C26.0906 14.4094 28.2656 13.7109 30.4031 14.0672C33.6328 14.6063 36 17.4 36 20.6766V20.9484C36 21.7406 35.8688 22.5188 35.6109 23.25Z" fill="#FF3B30"/>
</svg>
