<svg width="64" height="64" viewBox="0 0 64 64" fill="none" xmlns="http://www.w3.org/2000/svg">
<path d="M0 32C0 14.3269 14.3269 0 32 0V0C49.6731 0 64 14.3269 64 32V32C64 49.6731 49.6731 64 32 64V64C14.3269 64 0 49.6731 0 32V32Z" fill="#E8F3FF"/>
<g clip-path="url(#clip0_235_15628)">
<path d="M23.7969 21.4883C23.7969 19.0098 25.8066 17 28.2852 17C29.4746 17 30.6172 17.4746 31.4551 18.3125L32 18.8574L32.5449 18.3125C33.3828 17.4746 34.5254 17 35.7148 17C38.1934 17 40.2031 19.0098 40.2031 21.4883C40.2031 22.6777 39.7285 23.8203 38.8906 24.6582L32.8262 30.7168C32.3691 31.1738 31.625 31.1738 31.168 30.7168L25.1094 24.6582C24.2715 23.8203 23.7969 22.6777 23.7969 21.4883ZM48.418 36.7051C49.1855 37.748 48.9629 39.2129 47.9199 39.9805L40.502 45.4473C39.1309 46.4551 37.4785 47 35.7734 47H26.375H17C15.9629 47 15.125 46.1621 15.125 45.125V41.375C15.125 40.3379 15.9629 39.5 17 39.5H19.1562L21.7871 37.3906C23.1172 36.3242 24.7695 35.75 26.4746 35.75H31.0625H32H35.75C36.7871 35.75 37.625 36.5879 37.625 37.625C37.625 38.6621 36.7871 39.5 35.75 39.5H32H31.0625C30.5469 39.5 30.125 39.9219 30.125 40.4375C30.125 40.9531 30.5469 41.375 31.0625 41.375H38.1289L45.1426 36.207C46.1855 35.4395 47.6504 35.6621 48.418 36.7051ZM26.4688 39.5H26.416C26.4336 39.5 26.4512 39.5 26.4688 39.5Z" fill="#007AFF"/>
</g>
<defs>
<clipPath id="clip0_235_15628">
<rect width="33.75" height="30" fill="white" transform="translate(15.125 17)"/>
</clipPath>
</defs>
</svg>
