<svg width="57" height="34" viewBox="0 0 57 34" fill="none" xmlns="http://www.w3.org/2000/svg">
<path d="M0 8C0 3.58172 3.58172 0 8 0H49C53.4183 0 57 3.58172 57 8V26C57 30.4183 53.4183 34 49 34H8C3.58172 34 0 30.4183 0 26V8Z" fill="#FF511A"/>
<path d="M17.2642 23V12.57H23.9842V13.62H18.3842V17.246H23.7042V18.296H18.3842V21.95H23.9842V23H17.2642ZM25.1825 23V15.496H26.2325V16.952L25.9945 16.896C26.1812 16.4107 26.4845 16.028 26.9045 15.748C27.3338 15.468 27.8285 15.328 28.3885 15.328C28.9205 15.328 29.3965 15.4493 29.8165 15.692C30.2458 15.9347 30.5818 16.2707 30.8245 16.7C31.0765 17.12 31.2025 17.596 31.2025 18.128V23H30.1525V18.534C30.1525 18.0767 30.0685 17.6893 29.9005 17.372C29.7418 17.0547 29.5132 16.812 29.2145 16.644C28.9252 16.4667 28.5892 16.378 28.2065 16.378C27.8238 16.378 27.4832 16.4667 27.1845 16.644C26.8858 16.812 26.6525 17.0593 26.4845 17.386C26.3165 17.7033 26.2325 18.086 26.2325 18.534V23H25.1825ZM36.0959 23.168C35.3959 23.168 34.7659 23 34.2059 22.664C33.6459 22.3187 33.2025 21.852 32.8759 21.264C32.5585 20.6667 32.3999 19.9947 32.3999 19.248C32.3999 18.492 32.5585 17.82 32.8759 17.232C33.2025 16.644 33.6412 16.182 34.1919 15.846C34.7519 15.5007 35.3865 15.328 36.0959 15.328C36.7399 15.328 37.3139 15.468 37.8179 15.748C38.3219 16.028 38.7185 16.406 39.0079 16.882L38.8399 17.176V12.402H39.8899V23H38.8399V21.32L39.0079 21.474C38.7465 22.0153 38.3545 22.4353 37.8319 22.734C37.3185 23.0233 36.7399 23.168 36.0959 23.168ZM36.1519 22.118C36.6559 22.118 37.1085 21.992 37.5099 21.74C37.9205 21.488 38.2425 21.1473 38.4759 20.718C38.7186 20.2793 38.8399 19.7893 38.8399 19.248C38.8399 18.7067 38.7186 18.2213 38.4759 17.792C38.2425 17.3533 37.9205 17.008 37.5099 16.756C37.1085 16.504 36.6559 16.378 36.1519 16.378C35.6572 16.378 35.2092 16.504 34.8079 16.756C34.4065 17.008 34.0892 17.3487 33.8559 17.778C33.6319 18.2073 33.5199 18.6973 33.5199 19.248C33.5199 19.7893 33.6319 20.2793 33.8559 20.718C34.0892 21.1473 34.4019 21.488 34.7939 21.74C35.1952 21.992 35.6479 22.118 36.1519 22.118Z" fill="#E5E5E5"/>
</svg>
