<svg width="64" height="64" viewBox="0 0 64 64" fill="none" xmlns="http://www.w3.org/2000/svg">
<path d="M0 32C0 14.3269 14.3269 0 32 0C49.6731 0 64 14.3269 64 32C64 49.6731 49.6731 64 32 64C14.3269 64 0 49.6731 0 32Z" fill="#15B46A"/>
<g clip-path="url(#clip0_313_36545)">
<path d="M45.4123 22.5874C46.1936 23.3687 46.1936 24.6374 45.4123 25.4187L29.4123 41.4187C28.6311 42.1999 27.3623 42.1999 26.5811 41.4187L18.5811 33.4187C17.7998 32.6374 17.7998 31.3687 18.5811 30.5874C19.3623 29.8062 20.6311 29.8062 21.4123 30.5874L27.9998 37.1687L42.5873 22.5874C43.3686 21.8062 44.6373 21.8062 45.4186 22.5874H45.4123Z" fill="white"/>
</g>
<defs>
<clipPath id="clip0_313_36545">
<rect width="28" height="32" fill="white" transform="translate(18 16)"/>
</clipPath>
</defs>
</svg>
