<svg width="145" height="64" viewBox="0 0 145 64" fill="none" xmlns="http://www.w3.org/2000/svg">
<path d="M10.7334 0C11.2857 3.50458e-05 11.7334 0.447737 11.7334 1V63C11.7334 63.5523 11.2857 64 10.7334 64C10.1811 64 9.7334 63.5523 9.7334 63V1C9.7334 0.447715 10.1811 0 10.7334 0ZM41.5557 0C42.1079 5.77208e-05 42.5557 0.447751 42.5557 1V63C42.5557 63.5522 42.1079 63.9999 41.5557 64C41.0034 64 40.5557 63.5523 40.5557 63V1C40.5557 0.447715 41.0034 0 41.5557 0ZM51.2891 0C51.8413 9.48223e-05 52.2891 0.447774 52.2891 1V63C52.2891 63.5522 51.8413 63.9999 51.2891 64C50.7368 64 50.2891 63.5523 50.2891 63V1C50.2891 0.447715 50.7368 0 51.2891 0ZM93.4668 0C94.019 7.00884e-05 94.4668 0.447758 94.4668 1V63C94.4668 63.5522 94.019 63.9999 93.4668 64C92.9145 64 92.4668 63.5523 92.4668 63V1C92.4668 0.447715 92.9145 0 93.4668 0ZM124.289 0C124.841 9.48223e-05 125.289 0.447774 125.289 1V63C125.289 63.5522 124.841 63.9999 124.289 64C123.737 64 123.289 63.5523 123.289 63V1C123.289 0.447715 123.737 0 124.289 0ZM134.022 0C134.575 0.00013192 135.022 0.447797 135.022 1V63C135.022 63.5522 134.575 63.9999 134.022 64C133.47 64 133.022 63.5523 133.022 63V1C133.022 0.447715 133.47 0 134.022 0ZM30.2002 7.11035C30.7524 7.11046 31.2002 7.55813 31.2002 8.11035V55.8877C31.2002 56.4399 30.7524 56.8876 30.2002 56.8877C29.6479 56.8877 29.2002 56.44 29.2002 55.8877V8.11035C29.2002 7.55807 29.6479 7.11035 30.2002 7.11035ZM61.0225 7.11035C61.5746 7.11048 62.0225 7.55815 62.0225 8.11035V55.8877C62.0225 56.4399 61.5746 56.8876 61.0225 56.8877C60.4702 56.8877 60.0225 56.44 60.0225 55.8877V8.11035C60.0225 7.55807 60.4702 7.11035 61.0225 7.11035ZM112.934 7.11035C113.486 7.11049 113.934 7.55815 113.934 8.11035V55.8877C113.934 56.4399 113.486 56.8876 112.934 56.8877C112.381 56.8877 111.934 56.44 111.934 55.8877V8.11035C111.934 7.55807 112.381 7.11035 112.934 7.11035ZM143.756 7.11035C144.308 7.11052 144.756 7.55817 144.756 8.11035V55.8877C144.756 56.4399 144.308 56.8875 143.756 56.8877C143.204 56.8877 142.756 56.44 142.756 55.8877V8.11035C142.756 7.55807 143.204 7.11035 143.756 7.11035ZM1 14.2227C1.55228 14.2227 2 14.6704 2 15.2227V48.7783C1.99978 49.3304 1.55215 49.7783 1 49.7783C0.447851 49.7783 0.000220013 49.3304 0 48.7783V15.2227C0 14.6704 0.447715 14.2227 1 14.2227ZM20.4668 14.2227C21.019 14.2227 21.4668 14.6704 21.4668 15.2227V48.7783C21.4665 49.3303 21.0188 49.7783 20.4668 49.7783C19.9147 49.7783 19.4671 49.3303 19.4668 48.7783V15.2227C19.4668 14.6704 19.9145 14.2227 20.4668 14.2227ZM83.7334 14.2227C84.2857 14.2227 84.7334 14.6704 84.7334 15.2227V48.7783C84.7331 49.3303 84.2855 49.7783 83.7334 49.7783C83.1813 49.7783 82.7337 49.3303 82.7334 48.7783V15.2227C82.7334 14.6704 83.1811 14.2227 83.7334 14.2227ZM103.2 14.2227C103.752 14.2228 104.2 14.6704 104.2 15.2227V48.7783C104.2 49.3303 103.752 49.7782 103.2 49.7783C102.648 49.7783 102.201 49.3303 102.2 48.7783V15.2227C102.2 14.6704 102.648 14.2227 103.2 14.2227ZM72.3779 21.333C72.9301 21.3331 73.3779 21.7808 73.3779 22.333V41.666C73.3779 42.2183 72.9301 42.6659 72.3779 42.666C71.8256 42.666 71.3779 42.2183 71.3779 41.666V22.333C71.3779 21.7807 71.8256 21.333 72.3779 21.333Z" fill="url(#paint0_linear_306_30282)"/>
<defs>
<linearGradient id="paint0_linear_306_30282" x1="0" y1="32" x2="144.756" y2="32" gradientUnits="userSpaceOnUse">
<stop stop-color="#FF511A"/>
<stop offset="0.641434" stop-color="#0F172D"/>
</linearGradient>
</defs>
</svg>
