<svg width="20" height="20" viewBox="0 0 20 20" fill="none" xmlns="http://www.w3.org/2000/svg">
<g clip-path="url(#clip0_205_10029)">
<path fill-rule="evenodd" clip-rule="evenodd" d="M4.30305 10C4.30305 9.3649 4.40853 8.75601 4.5968 8.1849L1.30145 5.66846C0.65921 6.97246 0.297363 8.44179 0.297363 10C0.297363 11.5569 0.658765 13.0253 1.30012 14.3285L4.59368 11.8071C4.40719 11.2387 4.30305 10.632 4.30305 10Z" fill="#FBBC05"/>
<path fill-rule="evenodd" clip-rule="evenodd" d="M10.0891 4.22223C11.4688 4.22223 12.715 4.71112 13.6942 5.51112L16.5427 2.66667C14.8069 1.15556 12.5815 0.222229 10.0891 0.222229C6.2196 0.222229 2.89399 2.43512 1.30151 5.66845L4.59685 8.1849C5.35615 5.88001 7.52056 4.22223 10.0891 4.22223Z" fill="#EB4335"/>
<path fill-rule="evenodd" clip-rule="evenodd" d="M10.0891 15.7777C7.52056 15.7777 5.35615 14.12 4.59685 11.8151L1.30151 14.3311C2.89399 17.5648 6.2196 19.7777 10.0891 19.7777C12.4774 19.7777 14.7575 18.9297 16.4688 17.3408L13.3408 14.9226C12.4582 15.4786 11.3469 15.7777 10.0891 15.7777Z" fill="#34A853"/>
<path fill-rule="evenodd" clip-rule="evenodd" d="M19.4355 10C19.4355 9.42223 19.3464 8.80001 19.2129 8.22223H10.0889V12H15.3408C15.0782 13.288 14.3634 14.2782 13.3406 14.9227L16.4686 17.3409C18.2662 15.6725 19.4355 13.1871 19.4355 10Z" fill="#4285F4"/>
</g>
<defs>
<clipPath id="clip0_205_10029">
<rect width="20" height="20" fill="white"/>
</clipPath>
</defs>
</svg>
