<svg width="60" height="60" viewBox="0 0 60 60" fill="none" xmlns="http://www.w3.org/2000/svg">
<path d="M48 0C54.6274 0 60 5.37258 60 12V48C60 54.6274 54.6274 60 48 60H12C5.37258 60 0 54.6274 0 48V12C0 5.37258 5.37258 0 12 0H48Z" fill="#FE9D40"/>
<path d="M48 0C54.6274 0 60 5.37258 60 12V48C60 54.6274 54.6274 60 48 60H12C5.37258 60 0 54.6274 0 48V12C0 5.37258 5.37258 0 12 0H48Z" stroke="#E5E7EB"/>
<path d="M42 42H18V18H42V42Z" stroke="#E5E7EB"/>
<g clip-path="url(#clip0_205_13877)">
<path d="M35.7797 18.2203C35.4891 17.9297 35.0109 17.9297 34.7203 18.2203L33.9703 18.9703C33.6797 19.261 33.6797 19.7391 33.9703 20.0297L34.7203 20.7797C35.0109 21.0703 35.4891 21.0703 35.7797 20.7797L36.5297 20.0297C36.8203 19.7391 36.8203 19.261 36.5297 18.9703L35.7797 18.2203ZM23.4 25.95C23.775 25.6688 24.2391 25.5 24.75 25.5C25.9922 25.5 27 26.5078 27 27.75C27 28.9922 25.9922 30 24.75 30H23.1469C22.7906 30 22.5 30.2907 22.5 30.6469C22.5 30.7172 22.5094 30.7829 22.5328 30.8532L22.9078 31.9782C23.1141 32.5922 23.6859 33.0047 24.3328 33.0047H24.75H25.5C27.1547 33.0047 28.5 34.35 28.5 36.0047C28.5 37.6594 27.1547 39.0047 25.5 39.0047C23.1188 39.0047 21.6234 37.9969 20.7094 36.9985C20.2453 36.4922 19.9313 35.986 19.7297 35.6063C19.6313 35.4188 19.5609 35.2641 19.5188 35.1563C19.4953 35.1047 19.4813 35.0625 19.4719 35.0391L19.4625 35.0157V35.011C19.3406 34.6454 18.9609 34.4344 18.5859 34.5188C18.2063 34.6032 17.9578 34.9594 18.0047 35.3438L18.75 35.25C18.0047 35.3438 18.0047 35.3438 18.0047 35.3438V35.3485L18.0094 35.3672C18.0094 35.3813 18.0141 35.4047 18.0188 35.4282C18.0281 35.4797 18.0375 35.5547 18.0563 35.6438C18.0938 35.8266 18.15 36.0844 18.2391 36.3891C18.4172 36.9985 18.7219 37.8141 19.2375 38.6391C20.2828 40.3219 22.1906 42 25.5 42C28.8141 42 31.5 39.3141 31.5 36C31.5 34.9079 31.2094 33.8813 30.6984 33H31.7578C32.9531 33 34.0969 32.5266 34.9406 31.6829L36.1828 30.4407C36.4641 30.1594 36.8438 30 37.2422 30H37.5C38.3297 30 39 30.6704 39 31.5V36C39 36.8297 38.3297 37.5 37.5 37.5C36.2953 37.5 35.5594 36.9141 35.1 36.3C34.8656 35.986 34.7062 35.6719 34.6078 35.4282C34.5562 35.311 34.5234 35.2125 34.5047 35.1469C34.4953 35.1141 34.4859 35.0907 34.4813 35.0766L34.4766 35.0625C34.3875 34.7204 34.0734 34.4813 33.7172 34.4953C33.3609 34.5094 33.0656 34.7719 33.0094 35.1235L33.75 35.25C33.0094 35.1282 33.0094 35.1282 33.0094 35.1282V35.1329L33.0047 35.1469C33.0047 35.161 33 35.175 32.9953 35.1985C32.9906 35.2407 32.9813 35.2969 32.9766 35.3672C32.9625 35.5079 32.9484 35.7094 32.9484 35.9485C32.9484 36.4219 33 37.0688 33.2203 37.7344C33.4453 38.4047 33.8484 39.1079 34.5609 39.6422C35.2828 40.186 36.2484 40.5 37.5 40.5C39.9844 40.5 42 38.4844 42 36V31.5C42 29.0157 39.9844 27 37.5 27H37.2422C36.0469 27 34.9031 27.4735 34.0594 28.3172L32.8172 29.5594C32.5359 29.8407 32.1562 30 31.7578 30H29.4938C29.8172 29.3203 30 28.5563 30 27.75C30 24.8485 27.6516 22.5 24.75 22.5C23.5688 22.5 22.4766 22.8891 21.6 23.55C20.9391 24.0469 20.8031 24.9891 21.3 25.65C21.7969 26.311 22.7391 26.4469 23.4 25.95ZM31.1672 21.1266C30.8859 20.9391 30.5109 20.9625 30.2531 21.1875C29.9953 21.4125 29.925 21.7828 30.0797 22.0875L30.75 21.75C30.0797 22.0875 30.0797 22.0875 30.0797 22.0875V22.0922L30.0844 22.1016L30.1031 22.1344C30.1172 22.1625 30.1406 22.2 30.1688 22.2469C30.225 22.3407 30.3047 22.4719 30.4078 22.6313C30.6141 22.9453 30.9281 23.3578 31.3453 23.775C32.175 24.6141 33.4828 25.5 35.25 25.5C36.7125 25.5 37.9031 25.0125 38.7141 24.5532C39.1219 24.3188 39.4453 24.0891 39.6703 23.9063C39.7828 23.8172 39.8719 23.7375 39.9375 23.6766C39.9703 23.6485 39.9984 23.6203 40.0172 23.6016L40.0453 23.5782L40.0547 23.5688L40.0594 23.5641C40.0594 23.5641 40.0594 23.5641 39 22.5047L40.0594 23.5641C40.6453 22.9782 40.6453 22.0266 40.0594 21.4407C39.4781 20.8594 38.5312 20.8547 37.9453 21.4313C37.9406 21.436 37.9359 21.4407 37.9219 21.45C37.8984 21.4735 37.8516 21.511 37.7906 21.5625C37.6641 21.6657 37.4719 21.8063 37.2234 21.9469C36.7219 22.2375 36.0375 22.5 35.25 22.5C34.275 22.5 33.2625 22.1719 32.4609 21.8157C32.0672 21.6422 31.7391 21.4641 31.5094 21.3328C31.3969 21.2672 31.3078 21.2157 31.2469 21.1782C31.2188 21.1594 31.1953 21.1453 31.1813 21.136L31.1672 21.1266Z" fill="white"/>
</g>
<defs>
<clipPath id="clip0_205_13877">
<path d="M18 18H42V42H18V18Z" fill="white"/>
</clipPath>
</defs>
</svg>
