<svg width="44" height="44" viewBox="0 0 44 44" fill="none" xmlns="http://www.w3.org/2000/svg">
<g clip-path="url(#clip0_584_922)">
<path d="M10.4954 22.3087C9.83618 22.9679 9.83618 24.0384 10.4954 24.6976L18.9329 33.1351C19.592 33.7943 20.6625 33.7943 21.3217 33.1351C21.9809 32.4759 21.9809 31.4054 21.3217 30.7462L15.7583 25.188H31.9372C32.8706 25.188 33.6247 24.4339 33.6247 23.5005C33.6247 22.5671 32.8706 21.813 31.9372 21.813H15.7635L21.3165 16.2548C21.9756 15.5957 21.9756 14.5251 21.3165 13.866C20.6573 13.2068 19.5868 13.2068 18.9276 13.866L10.4901 22.3035L10.4954 22.3087Z" fill="white"/>
</g>
<defs>
<clipPath id="clip0_584_922">
<rect width="23.625" height="27" fill="white" transform="translate(10 10)"/>
</clipPath>
</defs>
</svg>
