<svg width="128" height="40" viewBox="0 0 128 40" fill="none" xmlns="http://www.w3.org/2000/svg">
<path d="M0 12C0 5.37258 5.37258 0 12 0H28C34.6274 0 40 5.37258 40 12V28C40 34.6274 34.6274 40 28 40H12C5.37258 40 0 34.6274 0 28V12Z" fill="#FF511A"/>
<path d="M30 34H10V6H30V34Z" stroke="#E5E7EB"/>
<path d="M30 30.5H10V10.5H30V30.5Z" stroke="#E5E7EB"/>
<path d="M20.625 14.25C17.5547 14.25 14.957 16.2617 14.0742 19.0352C15.3867 18.3711 16.8672 18 18.4375 18H21.875C22.2188 18 22.5 18.2812 22.5 18.625C22.5 18.9687 22.2188 19.25 21.875 19.25H21.25H18.4375C17.7891 19.25 17.1602 19.3242 16.5547 19.4609C15.543 19.6914 14.6016 20.1016 13.7656 20.6602C11.4961 22.1719 10 24.7539 10 27.6875V28.3125C10 28.832 10.418 29.25 10.9375 29.25C11.457 29.25 11.875 28.832 11.875 28.3125V27.6875C11.875 25.7852 12.6836 24.0742 13.9766 22.875C14.75 25.8242 17.4336 28 20.625 28H20.6641C25.8242 27.9727 30 22.8867 30 16.6172C30 14.9531 29.707 13.3711 29.1758 11.9453C29.0742 11.6758 28.6797 11.6875 28.543 11.9414C27.8086 13.3164 26.3555 14.25 24.6875 14.25H20.625Z" fill="white"/>
<path d="M56.136 31.288C55 31.288 53.968 31.072 53.04 30.64C52.112 30.208 51.328 29.632 50.688 28.912C50.048 28.176 49.592 27.368 49.32 26.488L51.048 25.84C51.464 27.056 52.112 27.984 52.992 28.624C53.872 29.248 54.92 29.56 56.136 29.56C56.904 29.56 57.576 29.44 58.152 29.2C58.744 28.944 59.2 28.592 59.52 28.144C59.84 27.696 60 27.176 60 26.584C60 25.704 59.76 25.024 59.28 24.544C58.8 24.064 58.112 23.696 57.216 23.44L54 22.48C52.736 22.112 51.76 21.496 51.072 20.632C50.4 19.768 50.064 18.784 50.064 17.68C50.064 16.736 50.296 15.904 50.76 15.184C51.224 14.448 51.856 13.872 52.656 13.456C53.472 13.04 54.392 12.832 55.416 12.832C56.488 12.832 57.448 13.032 58.296 13.432C59.16 13.816 59.888 14.328 60.48 14.968C61.072 15.608 61.496 16.32 61.752 17.104L60.072 17.776C59.688 16.72 59.088 15.92 58.272 15.376C57.472 14.832 56.528 14.56 55.44 14.56C54.752 14.56 54.144 14.68 53.616 14.92C53.104 15.16 52.704 15.504 52.416 15.952C52.128 16.4 51.984 16.928 51.984 17.536C51.984 18.272 52.216 18.936 52.68 19.528C53.144 20.104 53.856 20.536 54.816 20.824L57.648 21.664C59.056 22.08 60.12 22.68 60.84 23.464C61.56 24.248 61.92 25.232 61.92 26.416C61.92 27.376 61.672 28.224 61.176 28.96C60.696 29.68 60.016 30.248 59.136 30.664C58.272 31.08 57.272 31.288 56.136 31.288ZM70.5196 31.288C69.3196 31.288 68.2316 31 67.2556 30.424C66.2956 29.832 65.5356 29.024 64.9756 28C64.4156 26.976 64.1356 25.816 64.1356 24.52C64.1356 23.224 64.4076 22.08 64.9516 21.088C65.4956 20.08 66.2316 19.288 67.1596 18.712C68.1036 18.136 69.1596 17.848 70.3276 17.848C71.2556 17.848 72.0796 18.024 72.7996 18.376C73.5356 18.712 74.1596 19.176 74.6716 19.768C75.1836 20.344 75.5756 21 75.8476 21.736C76.1196 22.456 76.2556 23.2 76.2556 23.968C76.2556 24.128 76.2476 24.312 76.2316 24.52C76.2156 24.712 76.1916 24.912 76.1596 25.12H65.2876V23.44H75.1276L74.2636 24.16C74.4076 23.28 74.3036 22.496 73.9516 21.808C73.6156 21.104 73.1276 20.552 72.4876 20.152C71.8476 19.736 71.1276 19.528 70.3276 19.528C69.5276 19.528 68.7836 19.736 68.0956 20.152C67.4236 20.568 66.8956 21.152 66.5116 21.904C66.1276 22.64 65.9756 23.52 66.0556 24.544C65.9756 25.568 66.1356 26.464 66.5356 27.232C66.9516 27.984 67.5116 28.568 68.2156 28.984C68.9356 29.4 69.7036 29.608 70.5196 29.608C71.4636 29.608 72.2556 29.384 72.8956 28.936C73.5356 28.488 74.0556 27.928 74.4556 27.256L75.9916 28.072C75.7356 28.648 75.3436 29.184 74.8156 29.68C74.2876 30.16 73.6556 30.552 72.9196 30.856C72.1996 31.144 71.3996 31.288 70.5196 31.288ZM78.7293 31V18.136H80.5293V20.248L80.2893 19.936C80.5933 19.328 81.0493 18.848 81.6573 18.496C82.2813 18.144 83.0333 17.968 83.9133 17.968H84.7293V19.768H83.6013C82.6733 19.768 81.9293 20.056 81.3693 20.632C80.8093 21.208 80.5293 22.024 80.5293 23.08V31H78.7293ZM91.9946 31.288C90.7946 31.288 89.7066 31 88.7306 30.424C87.7706 29.832 87.0106 29.024 86.4506 28C85.8906 26.976 85.6106 25.816 85.6106 24.52C85.6106 23.224 85.8826 22.08 86.4266 21.088C86.9706 20.08 87.7066 19.288 88.6346 18.712C89.5786 18.136 90.6346 17.848 91.8026 17.848C92.7306 17.848 93.5546 18.024 94.2746 18.376C95.0106 18.712 95.6346 19.176 96.1466 19.768C96.6586 20.344 97.0506 21 97.3226 21.736C97.5946 22.456 97.7306 23.2 97.7306 23.968C97.7306 24.128 97.7226 24.312 97.7066 24.52C97.6906 24.712 97.6666 24.912 97.6346 25.12H86.7626V23.44H96.6026L95.7386 24.16C95.8826 23.28 95.7786 22.496 95.4266 21.808C95.0906 21.104 94.6026 20.552 93.9626 20.152C93.3226 19.736 92.6026 19.528 91.8026 19.528C91.0026 19.528 90.2586 19.736 89.5706 20.152C88.8986 20.568 88.3706 21.152 87.9866 21.904C87.6026 22.64 87.4506 23.52 87.5306 24.544C87.4506 25.568 87.6106 26.464 88.0106 27.232C88.4266 27.984 88.9866 28.568 89.6906 28.984C90.4106 29.4 91.1786 29.608 91.9946 29.608C92.9386 29.608 93.7306 29.384 94.3706 28.936C95.0106 28.488 95.5306 27.928 95.9306 27.256L97.4666 28.072C97.2106 28.648 96.8186 29.184 96.2906 29.68C95.7626 30.16 95.1306 30.552 94.3946 30.856C93.6746 31.144 92.8746 31.288 91.9946 31.288ZM100.204 31V18.136H102.004V20.632L101.596 20.536C101.916 19.704 102.436 19.048 103.156 18.568C103.892 18.088 104.74 17.848 105.7 17.848C106.612 17.848 107.428 18.056 108.148 18.472C108.884 18.888 109.46 19.464 109.876 20.2C110.308 20.92 110.524 21.736 110.524 22.648V31H108.724V23.344C108.724 22.56 108.58 21.896 108.292 21.352C108.02 20.808 107.628 20.392 107.116 20.104C106.62 19.8 106.044 19.648 105.388 19.648C104.732 19.648 104.148 19.8 103.636 20.104C103.124 20.392 102.724 20.816 102.436 21.376C102.148 21.92 102.004 22.576 102.004 23.344V31H100.204ZM119.118 31.288C117.918 31.288 116.83 31 115.854 30.424C114.894 29.832 114.134 29.024 113.574 28C113.014 26.976 112.734 25.816 112.734 24.52C112.734 23.224 113.006 22.08 113.55 21.088C114.094 20.08 114.83 19.288 115.758 18.712C116.702 18.136 117.758 17.848 118.926 17.848C119.854 17.848 120.678 18.024 121.398 18.376C122.134 18.712 122.758 19.176 123.27 19.768C123.782 20.344 124.174 21 124.446 21.736C124.718 22.456 124.854 23.2 124.854 23.968C124.854 24.128 124.846 24.312 124.83 24.52C124.814 24.712 124.79 24.912 124.758 25.12H113.886V23.44H123.726L122.862 24.16C123.006 23.28 122.902 22.496 122.55 21.808C122.214 21.104 121.726 20.552 121.086 20.152C120.446 19.736 119.726 19.528 118.926 19.528C118.126 19.528 117.382 19.736 116.694 20.152C116.022 20.568 115.494 21.152 115.11 21.904C114.726 22.64 114.574 23.52 114.654 24.544C114.574 25.568 114.734 26.464 115.134 27.232C115.55 27.984 116.11 28.568 116.814 28.984C117.534 29.4 118.302 29.608 119.118 29.608C120.062 29.608 120.854 29.384 121.494 28.936C122.134 28.488 122.654 27.928 123.054 27.256L124.59 28.072C124.334 28.648 123.942 29.184 123.414 29.68C122.886 30.16 122.254 30.552 121.518 30.856C120.798 31.144 119.998 31.288 119.118 31.288Z" fill="#20253F"/>
</svg>
