<svg width="207" height="32" viewBox="0 0 207 32" fill="none" xmlns="http://www.w3.org/2000/svg">
<path d="M0 8C0 3.58172 3.58172 0 8 0H24C28.4183 0 32 3.58172 32 8V24C32 28.4183 28.4183 32 24 32H8C3.58172 32 0 28.4183 0 24V8Z" fill="#FF511A"/>
<path d="M16.4375 12.3751C14.2883 12.3751 12.4699 13.7833 11.852 15.7247C12.7707 15.2599 13.807 15.0001 14.9062 15.0001H17.3125C17.5531 15.0001 17.75 15.197 17.75 15.4376C17.75 15.6782 17.5531 15.8751 17.3125 15.8751H16.875H14.9062C14.4523 15.8751 14.0121 15.9271 13.5883 16.0228C12.8801 16.1841 12.2211 16.4712 11.6359 16.8622C10.0473 17.9204 9 19.7278 9 21.7814V22.2189C9 22.5825 9.29258 22.8751 9.65625 22.8751C10.0199 22.8751 10.3125 22.5825 10.3125 22.2189V21.7814C10.3125 20.4497 10.8785 19.2521 11.7836 18.4126C12.325 20.4771 14.2035 22.0001 16.4375 22.0001H16.4648C20.077 21.981 23 18.4208 23 14.0321C23 12.8673 22.7949 11.7599 22.423 10.7618C22.352 10.5732 22.0758 10.5814 21.9801 10.7591C21.466 11.7216 20.4488 12.3751 19.2812 12.3751H16.4375Z" fill="white"/>
<path d="M46.78 25.24C45.8333 25.24 44.9733 25.06 44.2 24.7C43.4267 24.34 42.7733 23.86 42.24 23.26C41.7067 22.6467 41.3267 21.9733 41.1 21.24L42.54 20.7C42.8867 21.7133 43.4267 22.4867 44.16 23.02C44.8933 23.54 45.7667 23.8 46.78 23.8C47.42 23.8 47.98 23.7 48.46 23.5C48.9533 23.2867 49.3333 22.9933 49.6 22.62C49.8667 22.2467 50 21.8133 50 21.32C50 20.5867 49.8 20.02 49.4 19.62C49 19.22 48.4267 18.9133 47.68 18.7L45 17.9C43.9467 17.5933 43.1333 17.08 42.56 16.36C42 15.64 41.72 14.82 41.72 13.9C41.72 13.1133 41.9133 12.42 42.3 11.82C42.6867 11.2067 43.2133 10.7267 43.88 10.38C44.56 10.0333 45.3267 9.86 46.18 9.86C47.0733 9.86 47.8733 10.0267 48.58 10.36C49.3 10.68 49.9067 11.1067 50.4 11.64C50.8933 12.1733 51.2467 12.7667 51.46 13.42L50.06 13.98C49.74 13.1 49.24 12.4333 48.56 11.98C47.8933 11.5267 47.1067 11.3 46.2 11.3C45.6267 11.3 45.12 11.4 44.68 11.6C44.2533 11.8 43.92 12.0867 43.68 12.46C43.44 12.8333 43.32 13.2733 43.32 13.78C43.32 14.3933 43.5133 14.9467 43.9 15.44C44.2867 15.92 44.88 16.28 45.68 16.52L48.04 17.22C49.2133 17.5667 50.1 18.0667 50.7 18.72C51.3 19.3733 51.6 20.1933 51.6 21.18C51.6 21.98 51.3933 22.6867 50.98 23.3C50.58 23.9 50.0133 24.3733 49.28 24.72C48.56 25.0667 47.7267 25.24 46.78 25.24ZM58.6497 25.24C57.6497 25.24 56.743 25 55.9297 24.52C55.1297 24.0267 54.4964 23.3533 54.0297 22.5C53.563 21.6467 53.3297 20.68 53.3297 19.6C53.3297 18.52 53.5564 17.5667 54.0097 16.74C54.463 15.9 55.0764 15.24 55.8497 14.76C56.6364 14.28 57.5164 14.04 58.4897 14.04C59.263 14.04 59.9497 14.1867 60.5497 14.48C61.163 14.76 61.683 15.1467 62.1097 15.64C62.5364 16.12 62.863 16.6667 63.0897 17.28C63.3164 17.88 63.4297 18.5 63.4297 19.14C63.4297 19.2733 63.423 19.4267 63.4097 19.6C63.3964 19.76 63.3764 19.9267 63.3497 20.1H54.2897V18.7H62.4897L61.7697 19.3C61.8897 18.5667 61.803 17.9133 61.5097 17.34C61.2297 16.7533 60.823 16.2933 60.2897 15.96C59.7564 15.6133 59.1564 15.44 58.4897 15.44C57.823 15.44 57.203 15.6133 56.6297 15.96C56.0697 16.3067 55.6297 16.7933 55.3097 17.42C54.9897 18.0333 54.863 18.7667 54.9297 19.62C54.863 20.4733 54.9964 21.22 55.3297 21.86C55.6764 22.4867 56.143 22.9733 56.7297 23.32C57.3297 23.6667 57.9697 23.84 58.6497 23.84C59.4364 23.84 60.0964 23.6533 60.6297 23.28C61.163 22.9067 61.5964 22.44 61.9297 21.88L63.2097 22.56C62.9964 23.04 62.6697 23.4867 62.2297 23.9C61.7897 24.3 61.263 24.6267 60.6497 24.88C60.0497 25.12 59.383 25.24 58.6497 25.24ZM65.3744 25V14.28H66.8744V16.04L66.6744 15.78C66.9277 15.2733 67.3077 14.8733 67.8144 14.58C68.3344 14.2867 68.961 14.14 69.6944 14.14H70.3744V15.64H69.4344C68.661 15.64 68.041 15.88 67.5744 16.36C67.1077 16.84 66.8744 17.52 66.8744 18.4V25H65.3744ZM76.3122 25.24C75.3122 25.24 74.4055 25 73.5922 24.52C72.7922 24.0267 72.1589 23.3533 71.6922 22.5C71.2255 21.6467 70.9922 20.68 70.9922 19.6C70.9922 18.52 71.2189 17.5667 71.6722 16.74C72.1255 15.9 72.7389 15.24 73.5122 14.76C74.2989 14.28 75.1789 14.04 76.1522 14.04C76.9255 14.04 77.6122 14.1867 78.2122 14.48C78.8255 14.76 79.3455 15.1467 79.7722 15.64C80.1989 16.12 80.5255 16.6667 80.7522 17.28C80.9789 17.88 81.0922 18.5 81.0922 19.14C81.0922 19.2733 81.0855 19.4267 81.0722 19.6C81.0589 19.76 81.0389 19.9267 81.0122 20.1H71.9522V18.7H80.1522L79.4322 19.3C79.5522 18.5667 79.4655 17.9133 79.1722 17.34C78.8922 16.7533 78.4855 16.2933 77.9522 15.96C77.4189 15.6133 76.8189 15.44 76.1522 15.44C75.4855 15.44 74.8655 15.6133 74.2922 15.96C73.7322 16.3067 73.2922 16.7933 72.9722 17.42C72.6522 18.0333 72.5255 18.7667 72.5922 19.62C72.5255 20.4733 72.6589 21.22 72.9922 21.86C73.3389 22.4867 73.8055 22.9733 74.3922 23.32C74.9922 23.6667 75.6322 23.84 76.3122 23.84C77.0989 23.84 77.7589 23.6533 78.2922 23.28C78.8255 22.9067 79.2589 22.44 79.5922 21.88L80.8722 22.56C80.6589 23.04 80.3322 23.4867 79.8922 23.9C79.4522 24.3 78.9255 24.6267 78.3122 24.88C77.7122 25.12 77.0455 25.24 76.3122 25.24ZM83.0369 25V14.28H84.5369V16.36L84.1969 16.28C84.4635 15.5867 84.8969 15.04 85.4969 14.64C86.1102 14.24 86.8169 14.04 87.6169 14.04C88.3769 14.04 89.0569 14.2133 89.6569 14.56C90.2702 14.9067 90.7502 15.3867 91.0969 16C91.4569 16.6 91.6369 17.28 91.6369 18.04V25H90.1369V18.62C90.1369 17.9667 90.0169 17.4133 89.7769 16.96C89.5502 16.5067 89.2235 16.16 88.7969 15.92C88.3835 15.6667 87.9035 15.54 87.3569 15.54C86.8102 15.54 86.3235 15.6667 85.8969 15.92C85.4702 16.16 85.1369 16.5133 84.8969 16.98C84.6569 17.4333 84.5369 17.98 84.5369 18.62V25H83.0369ZM98.6817 25.24C97.6817 25.24 96.7751 25 95.9617 24.52C95.1617 24.0267 94.5284 23.3533 94.0617 22.5C93.5951 21.6467 93.3617 20.68 93.3617 19.6C93.3617 18.52 93.5884 17.5667 94.0417 16.74C94.4951 15.9 95.1084 15.24 95.8817 14.76C96.6684 14.28 97.5484 14.04 98.5217 14.04C99.2951 14.04 99.9817 14.1867 100.582 14.48C101.195 14.76 101.715 15.1467 102.142 15.64C102.568 16.12 102.895 16.6667 103.122 17.28C103.348 17.88 103.462 18.5 103.462 19.14C103.462 19.2733 103.455 19.4267 103.442 19.6C103.428 19.76 103.408 19.9267 103.382 20.1H94.3217V18.7H102.522L101.802 19.3C101.922 18.5667 101.835 17.9133 101.542 17.34C101.262 16.7533 100.855 16.2933 100.322 15.96C99.7884 15.6133 99.1884 15.44 98.5217 15.44C97.8551 15.44 97.2351 15.6133 96.6617 15.96C96.1017 16.3067 95.6617 16.7933 95.3417 17.42C95.0217 18.0333 94.8951 18.7667 94.9617 19.62C94.8951 20.4733 95.0284 21.22 95.3617 21.86C95.7084 22.4867 96.1751 22.9733 96.7617 23.32C97.3617 23.6667 98.0017 23.84 98.6817 23.84C99.4684 23.84 100.128 23.6533 100.662 23.28C101.195 22.9067 101.628 22.44 101.962 21.88L103.242 22.56C103.028 23.04 102.702 23.4867 102.262 23.9C101.822 24.3 101.295 24.6267 100.682 24.88C100.082 25.12 99.4151 25.24 98.6817 25.24Z" fill="white"/>
</svg>
