<svg width="16" height="16" viewBox="0 0 16 16" fill="none" xmlns="http://www.w3.org/2000/svg">
<path d="M16 16H0V0H16V16Z" stroke="#E5E7EB"/>
<g clip-path="url(#clip0_281_23253)">
<path d="M8 2.5C4.40938 2.5 1.5 5.40938 1.5 9V12.25C1.5 12.6656 1.16562 13 0.75 13C0.334375 13 0 12.6656 0 12.25V9C0 4.58125 3.58125 1 8 1C12.4187 1 16 4.58125 16 9V12.25C16 12.6656 15.6656 13 15.25 13C14.8344 13 14.5 12.6656 14.5 12.25V9C14.5 5.40938 11.5906 2.5 8 2.5ZM2.5 11C2.5 9.89688 3.39687 9 4.5 9H5C5.55312 9 6 9.44687 6 10V14C6 14.5531 5.55312 15 5 15H4.5C3.39687 15 2.5 14.1031 2.5 13V11ZM11.5 9C12.6031 9 13.5 9.89688 13.5 11V13C13.5 14.1031 12.6031 15 11.5 15H11C10.4469 15 10 14.5531 10 14V10C10 9.44687 10.4469 9 11 9H11.5Z" fill="#8490E4"/>
</g>
<defs>
<clipPath id="clip0_281_23253">
<path d="M0 0H16V16H0V0Z" fill="white"/>
</clipPath>
</defs>
</svg>
