<svg width="96" height="96" viewBox="0 0 96 96" fill="none" xmlns="http://www.w3.org/2000/svg">
<path d="M48 0C74.5097 0 96 21.4903 96 48C96 74.5097 74.5097 96 48 96C21.4903 96 0 74.5097 0 48C0 21.4903 21.4903 0 48 0Z" fill="#E7F8F2"/>
<path d="M48 0C74.5097 0 96 21.4903 96 48C96 74.5097 74.5097 96 48 96C21.4903 96 0 74.5097 0 48C0 21.4903 21.4903 0 48 0Z" stroke="#E5E7EB"/>
<path d="M70.5 70.5H25.5V25.5H70.5V70.5Z" stroke="#E5E7EB"/>
<g clip-path="url(#clip0_205_12229)">
<path d="M48 25.5C48.4043 25.5 48.8086 25.5879 49.1778 25.7549L65.7276 32.7773C67.6612 33.5947 69.1026 35.502 69.0938 37.8047C69.0498 46.5234 65.4639 62.4756 50.3204 69.7266C48.8526 70.4297 47.1475 70.4297 45.6797 69.7266C30.5362 62.4756 26.9502 46.5234 26.9063 37.8047C26.8975 35.502 28.3389 33.5947 30.2725 32.7773L46.8311 25.7549C47.1914 25.5879 47.5957 25.5 48 25.5ZM48 31.3711V64.5938C60.1289 58.7227 63.3897 45.7236 63.4688 37.9277L48 31.3711Z" fill="#15B46A"/>
</g>
<defs>
<clipPath id="clip0_205_12229">
<path d="M25.5 25.5H70.5V70.5H25.5V25.5Z" fill="white"/>
</clipPath>
</defs>
</svg>
