<svg width="135" height="36" viewBox="0 0 135 36" fill="none" xmlns="http://www.w3.org/2000/svg">
<rect width="135" height="36" rx="18" fill="#FFF7ED"/>
<path d="M26.5 18V15L29 16.5L31.5 18L29 19.5L26.5 21V18Z" fill="#FF511A"/>
<path d="M21.6361 24.364C23.2647 25.9927 25.5147 27 28 27C32.9706 27 37 22.9706 37 18C37 13.0294 32.9706 9 28 9C25.5147 9 23.2647 10.0074 21.6361 11.6361C20.8071 12.4651 19 14.5 19 14.5" stroke="#FF511A" stroke-width="2" stroke-linecap="round" stroke-linejoin="round"/>
<path d="M19 10.5V14.5H23" stroke="#FF511A" stroke-width="2" stroke-linecap="round" stroke-linejoin="round"/>
<path d="M46.6111 24V12.08H50.7071C51.4858 12.08 52.1685 12.2347 52.7551 12.544C53.3418 12.8427 53.7951 13.2693 54.1151 13.824C54.4458 14.368 54.6111 15.0027 54.6111 15.728C54.6111 16.4533 54.4458 17.088 54.1151 17.632C53.7951 18.176 53.3418 18.6027 52.7551 18.912C52.1791 19.2107 51.4965 19.36 50.7071 19.36H47.8911V24H46.6111ZM47.8911 18.16H50.7711C51.2831 18.16 51.7311 18.064 52.1151 17.872C52.4991 17.6693 52.7978 17.3867 53.0111 17.024C53.2245 16.6507 53.3311 16.2133 53.3311 15.712C53.3311 15.2107 53.2245 14.7787 53.0111 14.416C52.7978 14.0533 52.4991 13.776 52.1151 13.584C51.7311 13.3813 51.2831 13.28 50.7711 13.28H47.8911V18.16ZM56.2164 24V11.888H57.4164V24H56.2164ZM61.8526 24.192C61.3086 24.192 60.8233 24.0907 60.3966 23.888C59.97 23.6747 59.634 23.3867 59.3886 23.024C59.1433 22.6613 59.0206 22.2453 59.0206 21.776C59.0206 21.328 59.1166 20.9227 59.3086 20.56C59.5006 20.1867 59.7993 19.872 60.2046 19.616C60.61 19.36 61.1273 19.1787 61.7566 19.072L65.1166 18.512V19.6L62.0446 20.112C61.426 20.2187 60.978 20.416 60.7006 20.704C60.434 20.992 60.3006 21.3333 60.3006 21.728C60.3006 22.112 60.45 22.4373 60.7486 22.704C61.058 22.9707 61.4526 23.104 61.9326 23.104C62.5193 23.104 63.0313 22.9813 63.4686 22.736C63.906 22.48 64.2473 22.1387 64.4926 21.712C64.738 21.2853 64.8606 20.8107 64.8606 20.288V18.112C64.8606 17.6 64.674 17.184 64.3006 16.864C63.9273 16.544 63.442 16.384 62.8446 16.384C62.322 16.384 61.8633 16.5173 61.4686 16.784C61.074 17.04 60.7806 17.376 60.5886 17.792L59.5006 17.2C59.6606 16.8373 59.9113 16.5067 60.2526 16.208C60.6046 15.9093 61.0046 15.6747 61.4526 15.504C61.9006 15.3227 62.3646 15.232 62.8446 15.232C63.474 15.232 64.0286 15.3547 64.5086 15.6C64.9993 15.8453 65.378 16.1867 65.6446 16.624C65.922 17.0507 66.0606 17.5467 66.0606 18.112V24H64.8606V22.288L65.0366 22.464C64.8873 22.784 64.6526 23.0773 64.3326 23.344C64.0233 23.6 63.6553 23.808 63.2286 23.968C62.8126 24.1173 62.354 24.192 61.8526 24.192ZM68.2049 27.52C68.0342 27.52 67.8582 27.504 67.6769 27.472C67.5062 27.4507 67.3355 27.408 67.1649 27.344V26.224C67.2715 26.2347 67.4049 26.2507 67.5649 26.272C67.7355 26.304 67.9062 26.32 68.0769 26.32C68.5995 26.32 68.9995 26.208 69.2769 25.984C69.5542 25.7707 69.8262 25.3547 70.0929 24.736L70.6369 23.456L70.6049 24.512L66.9729 15.424H68.2689L71.2449 22.928H70.9089L73.8689 15.424H75.1969L71.2769 25.088C71.1062 25.504 70.8875 25.8987 70.6209 26.272C70.3649 26.6453 70.0395 26.944 69.6449 27.168C69.2502 27.4027 68.7702 27.52 68.2049 27.52ZM77.2698 24L81.6218 12.08H82.9978L87.3498 24H86.0058L84.9818 21.088H79.6538L78.6138 24H77.2698ZM80.0698 19.888H84.5338L82.1178 13.04H82.5018L80.0698 19.888ZM92.0148 27.52C91.4281 27.52 90.8841 27.4293 90.3828 27.248C89.8921 27.0667 89.4654 26.816 89.1028 26.496C88.7508 26.1867 88.4788 25.824 88.2868 25.408L89.3908 24.816C89.5614 25.2213 89.8654 25.5733 90.3028 25.872C90.7401 26.1707 91.3001 26.32 91.9828 26.32C92.5054 26.32 92.9854 26.2187 93.4228 26.016C93.8601 25.8133 94.2121 25.5147 94.4788 25.12C94.7454 24.7253 94.8788 24.24 94.8788 23.664V21.76L95.0708 21.936C94.7721 22.5547 94.3294 23.0347 93.7428 23.376C93.1561 23.7067 92.5161 23.872 91.8228 23.872C91.0228 23.872 90.3028 23.68 89.6628 23.296C89.0228 22.912 88.5161 22.3947 88.1428 21.744C87.7801 21.0827 87.5988 20.352 87.5988 19.552C87.5988 18.7413 87.7801 18.0107 88.1428 17.36C88.5161 16.7093 89.0174 16.192 89.6468 15.808C90.2868 15.424 91.0121 15.232 91.8228 15.232C92.5161 15.232 93.1454 15.392 93.7108 15.712C94.2868 16.032 94.7401 16.464 95.0708 17.008L94.8788 17.344V15.424H96.0788V23.664C96.0788 24.4 95.9028 25.056 95.5508 25.632C95.2094 26.2187 94.7294 26.6773 94.1108 27.008C93.5028 27.3493 92.8041 27.52 92.0148 27.52ZM91.8868 22.672C92.4414 22.672 92.9428 22.5333 93.3908 22.256C93.8388 21.968 94.1961 21.5893 94.4628 21.12C94.7401 20.64 94.8788 20.1173 94.8788 19.552C94.8788 18.9867 94.7401 18.4693 94.4628 18C94.1961 17.52 93.8388 17.1413 93.3908 16.864C92.9428 16.576 92.4414 16.432 91.8868 16.432C91.3214 16.432 90.8094 16.576 90.3508 16.864C89.8921 17.1413 89.5294 17.5147 89.2628 17.984C89.0068 18.4533 88.8788 18.976 88.8788 19.552C88.8788 20.1173 89.0068 20.64 89.2628 21.12C89.5294 21.5893 89.8868 21.968 90.3348 22.256C90.7934 22.5333 91.3108 22.672 91.8868 22.672ZM100.525 24.192C99.9805 24.192 99.4952 24.0907 99.0685 23.888C98.6418 23.6747 98.3058 23.3867 98.0605 23.024C97.8152 22.6613 97.6925 22.2453 97.6925 21.776C97.6925 21.328 97.7885 20.9227 97.9805 20.56C98.1725 20.1867 98.4712 19.872 98.8765 19.616C99.2818 19.36 99.7992 19.1787 100.429 19.072L103.789 18.512V19.6L100.717 20.112C100.098 20.2187 99.6498 20.416 99.3725 20.704C99.1058 20.992 98.9725 21.3333 98.9725 21.728C98.9725 22.112 99.1218 22.4373 99.4205 22.704C99.7298 22.9707 100.125 23.104 100.605 23.104C101.191 23.104 101.703 22.9813 102.141 22.736C102.578 22.48 102.919 22.1387 103.165 21.712C103.41 21.2853 103.533 20.8107 103.533 20.288V18.112C103.533 17.6 103.346 17.184 102.973 16.864C102.599 16.544 102.114 16.384 101.516 16.384C100.994 16.384 100.535 16.5173 100.141 16.784C99.7458 17.04 99.4525 17.376 99.2605 17.792L98.1725 17.2C98.3325 16.8373 98.5832 16.5067 98.9245 16.208C99.2765 15.9093 99.6765 15.6747 100.125 15.504C100.573 15.3227 101.037 15.232 101.516 15.232C102.146 15.232 102.701 15.3547 103.181 15.6C103.671 15.8453 104.05 16.1867 104.317 16.624C104.594 17.0507 104.733 17.5467 104.733 18.112V24H103.533V22.288L103.709 22.464C103.559 22.784 103.325 23.0773 103.005 23.344C102.695 23.6 102.327 23.808 101.901 23.968C101.485 24.1173 101.026 24.192 100.525 24.192ZM106.701 24V15.424H107.901V24H106.701ZM106.701 13.84V12.08H107.901V13.84H106.701ZM109.857 24V15.424H111.057V17.088L110.785 17.024C110.998 16.4693 111.345 16.032 111.825 15.712C112.316 15.392 112.881 15.232 113.521 15.232C114.129 15.232 114.673 15.3707 115.153 15.648C115.644 15.9253 116.028 16.3093 116.305 16.8C116.593 17.28 116.737 17.824 116.737 18.432V24H115.537V18.896C115.537 18.3733 115.441 17.9307 115.249 17.568C115.068 17.2053 114.806 16.928 114.465 16.736C114.134 16.5333 113.75 16.432 113.313 16.432C112.876 16.432 112.486 16.5333 112.145 16.736C111.804 16.928 111.537 17.2107 111.345 17.584C111.153 17.9467 111.057 18.384 111.057 18.896V24H109.857Z" fill="#FF511A"/>
</svg>
