<svg width="32" height="32" viewBox="0 0 32 32" fill="none" xmlns="http://www.w3.org/2000/svg">
<path d="M0 16C0 7.16344 7.16344 0 16 0V0C24.8366 0 32 7.16344 32 16V16C32 24.8366 24.8366 32 16 32V32C7.16344 32 0 24.8366 0 16V16Z" fill="white"/>
<path d="M21.25 23H10.75V9H21.25V23Z" stroke="#FF511A"/>
<g clip-path="url(#clip0_310_35679)">
<path d="M16.8613 9.875C13.4844 9.875 10.75 12.6176 10.75 16C10.75 19.3824 13.4844 22.125 16.8613 22.125C18.5184 22.125 20.0195 21.4633 21.1215 20.3914C21.2582 20.2574 21.2937 20.0496 21.2063 19.8801C21.1187 19.7105 20.9301 19.6148 20.7414 19.6477C20.4734 19.6941 20.2 19.7188 19.9184 19.7188C17.2687 19.7188 15.1195 17.5641 15.1195 14.9062C15.1195 13.107 16.1039 11.5402 17.5613 10.7145C17.7281 10.6188 17.8129 10.4273 17.7719 10.2414C17.7309 10.0555 17.5723 9.91602 17.3809 9.89961C17.2086 9.88594 17.0363 9.87773 16.8613 9.87773V9.875Z" fill="#FF511A"/>
</g>
<defs>
<clipPath id="clip0_310_35679">
<path d="M10.75 9H21.25V23H10.75V9Z" fill="white"/>
</clipPath>
</defs>
</svg>
