<svg width="60" height="60" viewBox="0 0 60 60" fill="none" xmlns="http://www.w3.org/2000/svg">
<path d="M50 0C55.5228 0 60 4.47715 60 10V50C60 55.5228 55.5228 60 50 60H10C4.47715 60 0 55.5228 0 50V10C5.15406e-07 4.47715 4.47715 0 10 0H50Z" fill="#8290EE"/>
<path d="M50 0C55.5228 0 60 4.47715 60 10V50C60 55.5228 55.5228 60 50 60H10C4.47715 60 0 55.5228 0 50V10C5.15406e-07 4.47715 4.47715 0 10 0H50Z" stroke="#E5E7EB"/>
<path d="M48.75 45H11.25V15H48.75V45Z" stroke="#E5E7EB"/>
<g clip-path="url(#clip0_205_13856)">
<path d="M23.4377 35.625C30.1701 35.625 35.6252 31.0078 35.6252 25.3125C35.6252 19.6172 30.1701 15 23.4377 15C16.7052 15 11.2502 19.6172 11.2502 25.3125C11.2502 27.5742 12.1115 29.666 13.5705 31.3711C13.3654 31.9219 13.0607 32.4082 12.7384 32.8184C12.4572 33.1816 12.1701 33.4629 11.9591 33.6562C11.8537 33.75 11.7658 33.8262 11.7072 33.873C11.6779 33.8965 11.6544 33.9141 11.6427 33.9199L11.631 33.9316C11.3087 34.1719 11.1681 34.5938 11.297 34.9746C11.4259 35.3555 11.7834 35.625 12.1877 35.625C13.465 35.625 14.7541 35.2969 15.8263 34.8926C16.3654 34.6875 16.8693 34.459 17.3087 34.2246C19.1076 35.1152 21.1994 35.625 23.4377 35.625ZM37.5002 25.3125C37.5002 31.8926 31.6935 36.8496 24.8146 37.4414C26.2384 41.8008 30.9611 45 36.5627 45C38.8009 45 40.8927 44.4902 42.6974 43.5996C43.1369 43.834 43.6349 44.0625 44.174 44.2676C45.2463 44.6719 46.5353 45 47.8127 45C48.2169 45 48.5802 44.7363 48.7033 44.3496C48.8263 43.9629 48.6916 43.541 48.3634 43.3008L48.3517 43.2891C48.34 43.2773 48.3166 43.2656 48.2873 43.2422C48.2287 43.1953 48.1408 43.125 48.0353 43.0254C47.8244 42.832 47.5373 42.5508 47.256 42.1875C46.9337 41.7773 46.6291 41.2852 46.424 40.7402C47.883 39.041 48.7443 36.9492 48.7443 34.6816C48.7443 29.2441 43.7697 24.7852 37.4591 24.3984C37.4826 24.6973 37.4943 25.002 37.4943 25.3066L37.5002 25.3125Z" fill="white"/>
</g>
<defs>
<clipPath id="clip0_205_13856">
<path d="M11.25 15H48.75V45H11.25V15Z" fill="white"/>
</clipPath>
</defs>
</svg>
