<svg width="48" height="48" viewBox="0 0 48 48" fill="none" xmlns="http://www.w3.org/2000/svg">
<path d="M40 0C44.4183 0 48 3.58172 48 8V40C48 44.4183 44.4183 48 40 48H8C3.58172 48 0 44.4183 0 40V8C5.15405e-07 3.58172 3.58172 0 8 0H40Z" fill="#FE9D40"/>
<path d="M40 0C44.4183 0 48 3.58172 48 8V40C48 44.4183 44.4183 48 40 48H8C3.58172 48 0 44.4183 0 40V8C5.15405e-07 3.58172 3.58172 0 8 0H40Z" stroke="#E5E7EB"/>
<path d="M31.5 34H16.5V14H31.5V34Z" stroke="#E5E7EB"/>
<g clip-path="url(#clip0_242_19629)">
<path d="M16.5 24L17.6133 15.0938C17.6914 14.4688 18.2227 14 18.8555 14H25.4414C26.0273 14 26.5 14.4727 26.5 15.0586C26.5 15.1836 26.4766 15.3125 26.4336 15.4297L24.625 20.25H30.0664C30.8555 20.25 31.5 20.8906 31.5 21.6836C31.5 21.9727 31.4141 22.2539 31.25 22.4922L23.7422 33.4688C23.5117 33.8047 23.1328 34.0039 22.7305 34.0039H22.6172C22.0039 34.0039 21.5039 33.5039 21.5039 32.8906C21.5039 32.8008 21.5156 32.7109 21.5391 32.6211L23.375 25.25H17.75C17.0586 25.25 16.5 24.6914 16.5 24Z" fill="white"/>
</g>
<defs>
<clipPath id="clip0_242_19629">
<path d="M16.5 14H31.5V34H16.5V14Z" fill="white"/>
</clipPath>
</defs>
</svg>
