<svg width="48" height="48" viewBox="0 0 48 48" fill="none" xmlns="http://www.w3.org/2000/svg">
<path d="M40 0C44.4183 0 48 3.58172 48 8V40C48 44.4183 44.4183 48 40 48H8C3.58172 48 0 44.4183 0 40V8C5.15405e-07 3.58172 3.58172 0 8 0H40Z" fill="#06CCFB"/>
<path d="M40 0C44.4183 0 48 3.58172 48 8V40C48 44.4183 44.4183 48 40 48H8C3.58172 48 0 44.4183 0 40V8C5.15405e-07 3.58172 3.58172 0 8 0H40Z" stroke="#E5E7EB"/>
<path d="M34 34H14V14H34V34Z" stroke="#E5E7EB"/>
<g clip-path="url(#clip0_242_19638)">
<path d="M17.75 26.5C15.6797 26.5 14 24.8203 14 22.75C14 21.0898 15.0781 19.6797 16.5742 19.1875C16.5273 18.9258 16.5 18.6523 16.5 18.375C16.5 15.957 18.457 14 20.875 14C22.5586 14 24.0195 14.9492 24.75 16.3438C25.3242 15.6758 26.1758 15.25 27.125 15.25C28.8516 15.25 30.25 16.6484 30.25 18.375C30.25 18.5898 30.2266 18.7969 30.1875 19C30.207 19 30.2305 19 30.25 19C32.3203 19 34 20.6797 34 22.75C34 24.8203 32.3203 26.5 30.25 26.5H17.75ZM17.4844 28.5312C17.5352 28.4336 17.6367 28.375 17.75 28.375C17.8633 28.375 17.9609 28.4336 18.0156 28.5312L19.3867 31.0547C19.5469 31.3477 19.6289 31.6719 19.6289 32.0039V32.1211C19.6289 33.1562 18.7891 33.9961 17.7539 33.9961C16.7188 33.9961 15.8789 33.1562 15.8789 32.1211V32.0039C15.8789 31.6719 15.9609 31.3438 16.1211 31.0547L17.4844 28.5312ZM23.7344 28.5312C23.7852 28.4336 23.8867 28.375 24 28.375C24.1133 28.375 24.2109 28.4336 24.2656 28.5312L25.6367 31.0547C25.7969 31.3477 25.8789 31.6719 25.8789 32.0039V32.1211C25.8789 33.1562 25.0391 33.9961 24.0039 33.9961C22.9688 33.9961 22.1289 33.1562 22.1289 32.1211V32.0039C22.1289 31.6719 22.2109 31.3438 22.3711 31.0547L23.7344 28.5312ZM28.6133 31.0547L29.9844 28.5312C30.0352 28.4336 30.1367 28.375 30.25 28.375C30.3633 28.375 30.4609 28.4336 30.5156 28.5312L31.8867 31.0547C32.0469 31.3477 32.1289 31.6719 32.1289 32.0039V32.1211C32.1289 33.1562 31.2891 33.9961 30.2539 33.9961C29.2188 33.9961 28.3789 33.1562 28.3789 32.1211V32.0039C28.3789 31.6719 28.4609 31.3438 28.6211 31.0547H28.6133Z" fill="white"/>
</g>
<defs>
<clipPath id="clip0_242_19638">
<path d="M14 14H34V34H14V14Z" fill="white"/>
</clipPath>
</defs>
</svg>
