<svg width="48" height="48" viewBox="0 0 48 48" fill="none" xmlns="http://www.w3.org/2000/svg">
<path d="M40 0C44.4183 0 48 3.58172 48 8V40C48 44.4183 44.4183 48 40 48H8C3.58172 48 0 44.4183 0 40V8C5.15405e-07 3.58172 3.58172 0 8 0H40Z" fill="#8290EE"/>
<path d="M40 0C44.4183 0 48 3.58172 48 8V40C48 44.4183 44.4183 48 40 48H8C3.58172 48 0 44.4183 0 40V8C5.15405e-07 3.58172 3.58172 0 8 0H40Z" stroke="#E5E7EB"/>
<path d="M31.5 34H16.5V14H31.5V34Z" stroke="#E5E7EB"/>
<g clip-path="url(#clip0_242_19647)">
<path d="M25.2305 15.25C20.4062 15.25 16.5 19.168 16.5 24C16.5 28.832 20.4062 32.75 25.2305 32.75C27.5977 32.75 29.7422 31.8047 31.3164 30.2734C31.5117 30.082 31.5625 29.7852 31.4375 29.543C31.3125 29.3008 31.043 29.1641 30.7734 29.2109C30.3906 29.2773 30 29.3125 29.5977 29.3125C25.8125 29.3125 22.7422 26.2344 22.7422 22.4375C22.7422 19.8672 24.1484 17.6289 26.2305 16.4492C26.4688 16.3125 26.5898 16.0391 26.5312 15.7734C26.4727 15.5078 26.2461 15.3086 25.9727 15.2852C25.7266 15.2656 25.4805 15.2539 25.2305 15.2539V15.25Z" fill="white"/>
</g>
<defs>
<clipPath id="clip0_242_19647">
<path d="M16.5 14H31.5V34H16.5V14Z" fill="white"/>
</clipPath>
</defs>
</svg>
