<svg width="20" height="20" viewBox="0 0 20 20" fill="none" xmlns="http://www.w3.org/2000/svg">
<path d="M0 10C0 4.47715 4.47715 0 10 0C15.5228 0 20 4.47715 20 10C20 15.5228 15.5228 20 10 20C4.47715 20 0 15.5228 0 10Z" fill="#FF511A"/>
<g clip-path="url(#clip0_665_533)">
<path d="M7.44939 5.9314C7.53179 5.8197 7.66362 5.75195 7.80278 5.75195H12.1973C12.3365 5.75195 12.4683 5.81787 12.5507 5.9314L14.6015 8.7146C14.726 8.88306 14.7132 9.1156 14.574 9.27124L10.326 13.9587C10.2436 14.0503 10.1246 14.1034 10 14.1034C9.87554 14.1034 9.75835 14.0503 9.67412 13.9587L5.42607 9.27124C5.28508 9.1156 5.2741 8.88306 5.39861 8.7146L7.44939 5.9314ZM8.15435 6.66016C8.09392 6.70593 8.07744 6.78833 8.11589 6.85242L9.16692 8.60291L6.47161 8.82812C6.39653 8.83362 6.33794 8.89771 6.33794 8.97461C6.33794 9.05151 6.39653 9.11377 6.47161 9.12109L9.98723 9.41406C9.99456 9.41406 10.0037 9.41406 10.011 9.41406L13.5267 9.12109C13.6017 9.1156 13.6603 9.05151 13.6603 8.97461C13.6603 8.89771 13.6017 8.83545 13.5267 8.82812L10.8332 8.60474L11.8842 6.85425C11.9227 6.79016 11.9062 6.70593 11.8458 6.66199C11.7853 6.61804 11.7011 6.62537 11.6498 6.6803L10 8.46558L8.35027 6.67847C8.299 6.62354 8.21477 6.61621 8.15435 6.66016Z" fill="white"/>
</g>
<defs>
<clipPath id="clip0_665_533">
<rect width="9.375" height="9.375" fill="white" transform="translate(5.3125 5.3125)"/>
</clipPath>
</defs>
</svg>
