<svg width="32" height="32" viewBox="0 0 32 32" fill="none" xmlns="http://www.w3.org/2000/svg">
<rect width="32" height="32" rx="16" fill="#FF511A"/>
<path d="M16.5 11.4C14.0438 11.4 11.9656 13.0094 11.2594 15.2281C12.3094 14.6969 13.4937 14.4 14.75 14.4H17.5C17.775 14.4 18 14.625 18 14.9C18 15.175 17.775 15.4 17.5 15.4H17H14.75C14.2312 15.4 13.7281 15.4594 13.2438 15.5687C12.4344 15.7531 11.6813 16.0812 11.0125 16.5281C9.19688 17.7375 8 19.8031 8 22.15V22.65C8 23.0656 8.33437 23.4 8.75 23.4C9.16563 23.4 9.5 23.0656 9.5 22.65V22.15C9.5 20.6281 10.1469 19.2594 11.1813 18.3C11.8 20.6594 13.9469 22.4 16.5 22.4H16.5312C20.6594 22.3781 24 18.3094 24 13.2937C24 11.9625 23.7656 10.6969 23.3406 9.55625C23.2594 9.34062 22.9438 9.35 22.8344 9.55312C22.2469 10.6531 21.0844 11.4 19.75 11.4H16.5Z" fill="white"/>
</svg>
